<?xml version="1.0" encoding="utf-8"?><svg xmlns="http://www.w3.org/2000/svg" viewBox="0 0 241.152 103.768">
  <defs>
    <style>
      .cls-1 {
        fill: #fff;
      }
    </style>
  </defs>
  <g id="Group_9" data-name="Group 9" transform="translate(0.075 -0.012)">
    <g id="Group_7" data-name="Group 7" transform="translate(118.408 10.681)">
      <path id="Path_17" data-name="Path 17" class="cls-1" d="M75.3,16.2V28.28h-7.41V17.3c0-3.019-1.372-4.391-3.568-4.391-2.47,0-4.116,1.372-4.116,4.94V28.005H52.8V7.149h7.135v2.2A9.747,9.747,0,0,1,66.8,6.6C71.461,6.6,75.3,9.619,75.3,16.2Z" transform="translate(-26.181 0.81)"/>
      <path id="Path_18" data-name="Path 18" class="cls-1" d="M80.64,30.247a10.447,10.447,0,0,1-5.214,1.1c-5.489,0-8.507-2.744-8.507-8.233V16.251H63.9V10.763h3.019V5h7.409v5.489h4.94v5.489h-4.94v7.135c0,1.647.823,2.47,2.2,2.47a5.17,5.17,0,0,0,2.2-.549Z" transform="translate(-6.819 -1.981)"/>
      <path id="Path_19" data-name="Path 19" class="cls-1" d="M93.1,20.914V32.989H85.693V22.012c0-3.019-1.372-4.391-3.568-4.391-2.47,0-4.116,1.372-4.116,4.94V32.715H70.6V3.9h7.409v9.879a8.491,8.491,0,0,1,6.312-2.2C89.261,11.31,93.1,14.328,93.1,20.914Z" transform="translate(4.867 -3.9)"/>
      <path id="Path_20" data-name="Path 20" class="cls-1" d="M102.177,19.5H86.809c.549,2.2,2.47,3.293,5.214,3.293a6.225,6.225,0,0,0,4.94-1.921l3.842,4.116c-1.921,2.2-4.94,3.568-9.056,3.568-7.684,0-12.349-4.665-12.349-10.977S84.34,6.6,91.2,6.6c6.312,0,11.251,4.116,11.251,10.977A5.357,5.357,0,0,0,102.177,19.5ZM86.535,15.656h8.782c-.274-2.2-1.921-3.568-4.391-3.568A4.4,4.4,0,0,0,86.535,15.656Z" transform="translate(20.217 0.81)"/>
      <path id="Path_21" data-name="Path 21" class="cls-1" d="M75.2,33.64V45.715h-7.41V34.738c0-3.019-1.372-4.391-3.568-4.391-2.47,0-4.116,1.372-4.116,4.94V45.44H52.7V16.9h7.41v9.879a8.491,8.491,0,0,1,6.312-2.2C71.635,24.31,75.2,27.328,75.2,33.64Z" transform="translate(-26.355 18.775)"/>
      <path id="Path_22" data-name="Path 22" class="cls-1" d="M93.1,29.279V41.354H85.693V30.377c0-3.019-1.372-4.391-3.568-4.391-2.47,0-4.116,1.372-4.116,4.94V41.08H70.6V19.949h7.135v2.2A9.747,9.747,0,0,1,84.6,19.4C89.261,19.949,93.1,22.968,93.1,29.279Z" transform="translate(4.867 23.136)"/>
      <path id="Path_23" data-name="Path 23" class="cls-1" d="M102.077,32.5H86.71c.549,2.2,2.47,3.293,5.214,3.293a6.225,6.225,0,0,0,4.94-1.921l3.842,4.116c-1.921,2.2-4.94,3.568-9.056,3.568-7.684,0-12.349-4.665-12.349-10.977S84.24,19.6,91.1,19.6c6.312,0,11.251,4.116,11.251,10.977A4.67,4.67,0,0,0,102.077,32.5ZM86.435,28.656h8.782c-.274-2.2-1.921-3.568-4.391-3.568A4.206,4.206,0,0,0,86.435,28.656Z" transform="translate(20.042 23.485)"/>
      <g id="Group_4" data-name="Group 4" transform="translate(0 7.41)">
        <path id="Path_24" data-name="Path 24" class="cls-1" d="M55.175,6.6C48.314,6.6,43.1,11.265,43.1,17.577s4.94,10.977,12.075,10.977,12.075-4.665,12.075-10.977S62.31,6.6,55.175,6.6Zm0,16.466a5.214,5.214,0,1,1,5.214-5.214A5.211,5.211,0,0,1,55.175,23.066Z" transform="translate(-43.1 -6.6)"/>
      </g>
      <g id="Group_5" data-name="Group 5" transform="translate(50.22 43.085)">
        <path id="Path_25" data-name="Path 25" class="cls-1" d="M73.475,19.6C66.614,19.6,61.4,24.265,61.4,30.577s4.94,10.977,12.075,10.977,12.075-4.665,12.075-10.977C85.275,24.265,80.335,19.6,73.475,19.6Zm0,16.191a5.214,5.214,0,1,1,0-10.428,5.4,5.4,0,0,1,5.214,5.214A5.211,5.211,0,0,1,73.475,35.791Z" transform="translate(-61.4 -19.6)"/>
      </g>
      <g id="Group_6" data-name="Group 6" transform="translate(1.372 43.085)">
        <path id="Path_26" data-name="Path 26" class="cls-1" d="M57.047,19.6c-2.744,0-4.94.823-6.312,2.47v-2.2H43.6V48.689h7.41v-9.6a8.543,8.543,0,0,0,6.037,2.2c5.763,0,10.428-4.116,10.428-10.977S62.81,19.6,57.047,19.6Zm-.823,16.191a5.214,5.214,0,1,1,5.214-5.214A5.046,5.046,0,0,1,56.224,35.791Z" transform="translate(-43.6 -19.6)"/>
      </g>
    </g>
    <g id="Group_8" data-name="Group 8" transform="translate(-0.075 0.012)">
      <path id="Path_27" data-name="Path 27" class="cls-1" d="M30.556,32.438c-7.135,0-20.856-2.2-20.856-11.8A5.987,5.987,0,0,1,16.012,14.6a6.154,6.154,0,0,1,6.037,6.312,5.862,5.862,0,0,1-2.2,4.665,31.052,31.052,0,0,0,10.7,1.921,27.07,27.07,0,0,0,10.977-1.921,5.862,5.862,0,0,1-2.2-4.665,6.091,6.091,0,0,1,6.037-6.037,6.154,6.154,0,0,1,6.037,6.312C51.413,30.242,37.691,32.438,30.556,32.438Z" transform="translate(17.125 25.432)"/>
      <path id="Path_28" data-name="Path 28" class="cls-1" d="M45.375,14.774a6.091,6.091,0,0,0-6.037,6.037,5.862,5.862,0,0,0,2.2,4.665A27.07,27.07,0,0,1,30.556,27.4a25.724,25.724,0,0,1-10.7-1.921,5.862,5.862,0,0,0,2.2-4.665A6.334,6.334,0,0,0,16.012,14.5,6.531,6.531,0,0,0,9.7,20.537c0,9.6,13.721,11.8,20.856,11.8s20.856-1.921,20.856-11.526A6.091,6.091,0,0,0,45.375,14.774Z" transform="translate(17.125 25.258)"/>
      <path id="Path_29" data-name="Path 29" class="cls-1" d="M89.868,16.444h0c-1.647-4.665-6.586-9.879-11.251-11.251h0A97.875,97.875,0,0,0,16.6,4.918h0C11.931,6.565,6.717,11.779,5.07,16.444h0a96.017,96.017,0,0,0,0,62.02h0A20.57,20.57,0,0,0,16.322,89.716h0a97,97,0,0,0,19.21,4.391l8.233,8.233a5.137,5.137,0,0,0,7.135,0l8.233-8.233a97,97,0,0,0,19.21-4.391h0A20.57,20.57,0,0,0,89.594,78.464h0A94.238,94.238,0,0,0,89.868,16.444Zm-7.135,59.55a12.856,12.856,0,0,1-6.586,6.586A110.663,110.663,0,0,1,57.76,86.7a4.931,4.931,0,0,0-2.47,1.1L50.9,92.186a5.137,5.137,0,0,1-7.135,0l-4.116-4.391a3.478,3.478,0,0,0-2.47-1.1,110.663,110.663,0,0,1-18.387-4.116,12.856,12.856,0,0,1-6.586-6.586,89.23,89.23,0,0,1,0-57.355,12.856,12.856,0,0,1,6.586-6.586,89.23,89.23,0,0,1,57.355,0,12.856,12.856,0,0,1,6.586,6.586A89.23,89.23,0,0,1,82.733,75.995Z" transform="translate(0.075 -0.012)"/>
    </g>
  </g>
</svg>
