<?xml version="1.0" encoding="utf-8"?><svg xmlns="http://www.w3.org/2000/svg" width="668.919" height="412.548" viewBox="0 0 668.919 412.548">
  <defs>
    <style>
      .cls-1 {
        fill: #6ba1fc;
      }

      .cls-2 {
        fill: #0075eb;
      }

      .cls-3 {
        fill: #fff;
      }

      .cls-4 {
        fill: #bbbbbc;
      }

      .cls-5 {
        fill: #b6b6b7;
      }
    </style>
  </defs>
  <g id="Group_138" data-name="Group 138" transform="translate(-0.125)">
    <g id="Group_131" data-name="Group 131" transform="translate(463.915 398.818)">
      <path id="Path_186" data-name="Path 186" class="cls-1" d="M142.654,133.541c-.327-.327-.654-.654-.654-.981a1.406,1.406,0,0,1,1.308-1.308c.327,0,.654,0,.654.327a5.808,5.808,0,0,0,3.269,1.308c1.308,0,1.961-.327,1.961-1.308h0c0-.654-.327-.981-2.615-1.634-2.615-.654-4.25-1.308-4.25-3.923h0c0-2.288,1.961-3.923,4.577-3.923a6.57,6.57,0,0,1,4.25,1.308c.327.327.654.654.654.981A1.406,1.406,0,0,1,150.5,125.7c-.327,0-.654,0-.654-.327a5.217,5.217,0,0,0-2.615-.981c-.981,0-1.635.654-1.635.981h0c0,.981.654.981,2.942,1.634,2.615.654,4.25,1.635,4.25,3.923h0c0,2.615-1.961,3.923-4.9,3.923A7.441,7.441,0,0,1,142.654,133.541Z" transform="translate(-142 -121.773)"/>
      <path id="Path_187" data-name="Path 187" class="cls-1" d="M150.823,124.715h-2.615a1.308,1.308,0,0,1,0-2.615h8.173a1.308,1.308,0,0,1,0,2.615h-2.615v9.153a1.308,1.308,0,1,1-2.615,0v-9.153Z" transform="translate(-130.882 -121.773)"/>
      <path id="Path_188" data-name="Path 188" class="cls-1" d="M152.2,129.846v-6.211a1.308,1.308,0,1,1,2.615,0v5.884c0,1.961.981,3.269,2.942,3.269s2.942-.981,2.942-3.269v-6.211a1.308,1.308,0,1,1,2.615,0v5.884c0,3.923-2.288,5.884-5.557,5.884C154.161,135.4,152.2,133.442,152.2,129.846Z" transform="translate(-118.856 -122)"/>
      <path id="Path_189" data-name="Path 189" class="cls-1" d="M157.9,123.408a1.406,1.406,0,0,1,1.308-1.308h3.6a6.635,6.635,0,0,1,6.865,6.538h0a6.635,6.635,0,0,1-6.865,6.538h-3.6a1.406,1.406,0,0,1-1.308-1.308Zm4.9,9.153a3.777,3.777,0,0,0,3.923-3.923h0a3.777,3.777,0,0,0-3.923-3.923h-2.288v7.846H162.8Z" transform="translate(-105.923 -121.773)"/>
      <path id="Path_190" data-name="Path 190" class="cls-1" d="M163.7,133.541V123.408a1.406,1.406,0,0,1,1.308-1.308H172.2a1.308,1.308,0,0,1,0,2.615h-5.884v2.615h4.9a1.308,1.308,0,0,1,0,2.615h-4.9v2.615H172.2a1.308,1.308,0,0,1,0,2.615h-7.192A1.5,1.5,0,0,1,163.7,133.541Z" transform="translate(-92.763 -121.773)"/>
      <path id="Path_191" data-name="Path 191" class="cls-1" d="M168.8,123.408a1.406,1.406,0,0,1,1.308-1.308h.327c.654,0,.981.327,1.635.981l5.557,7.192v-6.538a1.308,1.308,0,1,1,2.615,0V134.2a1.406,1.406,0,0,1-1.308,1.308h0c-.654,0-.981-.327-1.634-.981L171.742,127v6.865a1.308,1.308,0,1,1-2.615,0V123.408Z" transform="translate(-81.191 -121.773)"/>
      <path id="Path_192" data-name="Path 192" class="cls-1" d="M178.323,124.715h-2.615a1.308,1.308,0,0,1,0-2.615h8.173a1.308,1.308,0,0,1,0,2.615h-2.615v9.153a1.308,1.308,0,1,1-2.615,0v-9.153Z" transform="translate(-68.484 -121.773)"/>
    </g>
    <path id="Path_193" data-name="Path 193" class="cls-2" d="M507.274,225.4H59.421A29.507,29.507,0,0,1,30,195.976V100.521A29.507,29.507,0,0,1,59.421,71.1H477.853a29.507,29.507,0,0,1,29.421,29.421Z" transform="translate(67.786 161.326)"/>
    <g id="Group_132" data-name="Group 132" transform="translate(170.685 275.841)">
      <path id="Path_194" data-name="Path 194" class="cls-3" d="M72.668,84.8v22.883h-4.25V97.876H56.65v9.807H52.4V84.8h4.25v9.48H68.418V84.8Z" transform="translate(-52.073 -83.43)"/>
      <path id="Path_195" data-name="Path 195" class="cls-3" d="M77.853,96.307H64.123a5.353,5.353,0,0,0,5.557,4.25A5.486,5.486,0,0,0,74.257,98.6l2.288,2.615a8.443,8.443,0,0,1-6.865,2.942c-5.884,0-9.48-3.6-9.48-8.826S64.123,86.5,69.353,86.5s8.826,3.6,8.826,9.153C77.853,95.326,77.853,95.98,77.853,96.307Zm-13.73-2.615H73.93a4.954,4.954,0,0,0-9.807,0Z" transform="translate(-34.375 -79.572)"/>
      <path id="Path_196" data-name="Path 196" class="cls-3" d="M67,84.4h3.923v24.191H67Z" transform="translate(-18.946 -84.337)"/>
      <path id="Path_197" data-name="Path 197" class="cls-3" d="M70.1,84.4h3.923v24.191H70.1Z" transform="translate(-11.912 -84.337)"/>
      <path id="Path_198" data-name="Path 198" class="cls-3" d="M72.7,95.226c0-5.23,3.923-8.826,9.153-8.826,5.557,0,9.153,3.6,9.153,8.826s-3.923,8.826-9.153,8.826S72.7,100.457,72.7,95.226Zm14.711,0a5.247,5.247,0,0,0-5.23-5.557c-2.942,0-5.23,1.961-5.23,5.557s2.288,5.557,5.23,5.557A5.247,5.247,0,0,0,87.411,95.226Z" transform="translate(-6.012 -79.799)"/>
      <path id="Path_199" data-name="Path 199" class="cls-3" d="M84.63,92.632a6.676,6.676,0,0,1-.654,2.942l-1.635,4.577H79.727l1.308-4.9A2.458,2.458,0,0,1,79.4,92.959a2.406,2.406,0,0,1,2.615-2.615A2.156,2.156,0,0,1,84.63,92.632Z" transform="translate(9.19 -70.994)"/>
      <path id="Path_200" data-name="Path 200" class="cls-3" d="M85.5,84.8h4.25v22.883H85.5Z" transform="translate(23.031 -83.43)"/>
      <path id="Path_201" data-name="Path 201" class="cls-3" d="M93.53,86.732a6.676,6.676,0,0,1-.654,2.942L91.242,94.25H88.627l1.308-4.9A2.458,2.458,0,0,1,88.3,87.059a2.406,2.406,0,0,1,2.615-2.615C92.55,84.117,93.53,85.1,93.53,86.732Z" transform="translate(29.384 -84.381)"/>
      <path id="Path_202" data-name="Path 202" class="cls-3" d="M120.494,93.713v10.134h-4.25v-9.48c0-2.942-1.308-4.577-3.923-4.577s-4.577,1.634-4.577,5.23v8.826h-3.923v-9.48c0-2.942-1.308-4.577-3.923-4.577s-4.577,1.634-4.577,5.23v8.826H91.4V86.521h3.923v2.288a6.734,6.734,0,0,1,5.557-2.288,6.6,6.6,0,0,1,5.884,2.942,8.28,8.28,0,0,1,6.538-2.942C117.552,86.194,120.494,88.483,120.494,93.713Z" transform="translate(36.418 -79.594)"/>
      <path id="Path_203" data-name="Path 203" class="cls-3" d="M105.2,84.8h4.25v19.287h12.1v3.6H105.2Z" transform="translate(67.73 -83.43)"/>
      <path id="Path_204" data-name="Path 204" class="cls-3" d="M128.2,86.4v17.326h-3.923v-2.288a6.983,6.983,0,0,1-5.557,2.615c-4.577,0-7.519-2.615-7.519-7.846V86.4h3.923v9.48c0,3.269,1.634,4.577,3.923,4.577,2.942,0,4.9-1.634,4.9-5.23V86.4h4.25Z" transform="translate(81.344 -79.799)"/>
      <path id="Path_205" data-name="Path 205" class="cls-3" d="M117.8,95.226c0-5.23,3.923-8.826,9.48-8.826,3.269,0,6.211,1.308,7.519,3.923l-3.269,1.961A4.764,4.764,0,0,0,127.28,90c-2.942,0-5.23,1.961-5.23,5.557a5.247,5.247,0,0,0,5.23,5.557,4.764,4.764,0,0,0,4.25-2.288l3.269,1.961c-1.308,2.615-3.923,3.923-7.519,3.923C121.723,104.053,117.8,100.457,117.8,95.226Z" transform="translate(96.32 -79.799)"/>
      <path id="Path_206" data-name="Path 206" class="cls-3" d="M139.818,93.819v10.134H135.9v-1.961c-.981,1.634-2.942,2.288-5.557,2.288-3.923,0-6.538-2.288-6.538-5.23s1.961-5.23,7.192-5.23h4.577v-.327c0-2.288-1.308-3.923-4.25-3.923a9.044,9.044,0,0,0-5.23,1.634l-1.634-2.615a13.652,13.652,0,0,1,7.519-2.288C136.876,86.627,139.818,88.915,139.818,93.819Zm-4.25,4.9V96.761h-4.25c-2.615,0-3.6.981-3.6,2.288,0,1.634,1.308,2.288,3.269,2.288C133.28,101.337,134.915,100.684,135.568,98.722Z" transform="translate(109.934 -80.026)"/>
      <path id="Path_207" data-name="Path 207" class="cls-3" d="M129.9,102.318l1.635-2.942a12.519,12.519,0,0,0,6.211,1.635c2.615,0,3.6-.654,3.6-1.961,0-3.269-10.788-.327-10.788-7.192,0-3.269,2.942-5.557,7.519-5.557a13.821,13.821,0,0,1,6.538,1.634L142.976,91.2a9.225,9.225,0,0,0-4.9-1.308c-2.615,0-3.6.654-3.6,1.961,0,3.6,10.788.327,10.788,7.192,0,3.269-2.942,5.23-7.846,5.23C134.15,104.28,131.535,103.626,129.9,102.318Z" transform="translate(123.775 -80.026)"/>
      <path id="Path_208" data-name="Path 208" class="cls-3" d="M135.4,92.815a2.615,2.615,0,1,1,2.615,2.615A2.578,2.578,0,0,1,135.4,92.815Z" transform="translate(136.254 -71.177)"/>
      <path id="Path_209" data-name="Path 209" class="cls-3" d="M72.895,98v22.883H69.3L56.55,105.519v15.364H52.3V98h3.6l12.749,15.364V98Z" transform="translate(-52.3 -53.479)"/>
      <path id="Path_210" data-name="Path 210" class="cls-3" d="M60.4,99.688A2.332,2.332,0,0,1,63.015,97.4c1.635,0,2.615.654,2.615,1.961a2.578,2.578,0,0,1-2.615,2.615A2.526,2.526,0,0,1,60.4,99.688Zm.654,5.23h3.923v17.326H61.054Z" transform="translate(-33.921 -54.84)"/>
      <path id="Path_211" data-name="Path 211" class="cls-3" d="M63.2,108.526c0-5.23,3.923-8.826,9.48-8.826,3.269,0,6.211,1.308,7.519,3.923l-3.269,1.961a4.764,4.764,0,0,0-4.25-2.288c-2.942,0-5.23,1.961-5.23,5.557a5.247,5.247,0,0,0,5.23,5.557,4.764,4.764,0,0,0,4.25-2.288l3.269,1.961c-1.308,2.615-3.923,3.923-7.519,3.923C67.123,117.353,63.2,113.757,63.2,108.526Z" transform="translate(-27.568 -49.622)"/>
      <path id="Path_212" data-name="Path 212" class="cls-3" d="M86.853,109.607H73.123a5.353,5.353,0,0,0,5.557,4.25,5.486,5.486,0,0,0,4.577-1.961l2.288,2.615a8.443,8.443,0,0,1-6.865,2.942c-5.884,0-9.48-3.6-9.48-8.826S73.123,99.8,78.353,99.8s8.826,3.6,8.826,9.153C86.853,108.626,86.853,108.953,86.853,109.607Zm-13.73-2.942H82.93a4.69,4.69,0,0,0-4.9-4.25A4.951,4.951,0,0,0,73.123,106.665Z" transform="translate(-13.954 -49.395)"/>
      <path id="Path_213" data-name="Path 213" class="cls-3" d="M91.049,118.768a7.01,7.01,0,0,1-3.923,1.308q-5.884,0-5.884-5.884v-8.5H78.3v-3.269h2.942V98.5h3.923v3.923h4.577v3.269H85.165v8.172a2.332,2.332,0,0,0,2.288,2.615,4.725,4.725,0,0,0,2.288-.654Z" transform="translate(6.694 -52.344)"/>
      <path id="Path_214" data-name="Path 214" class="cls-3" d="M82.8,108.526c0-5.23,3.923-8.826,9.153-8.826,5.557,0,9.153,3.6,9.153,8.826s-3.923,8.826-9.153,8.826S82.8,113.757,82.8,108.526Zm14.384,0a5.247,5.247,0,0,0-5.23-5.557c-2.942,0-5.23,1.961-5.23,5.557s2.288,5.557,5.23,5.557C95.222,113.757,97.184,111.8,97.184,108.526Z" transform="translate(16.905 -49.622)"/>
      <path id="Path_215" data-name="Path 215" class="cls-3" d="M121.767,107.06v10.134h-3.923v-9.48c0-2.942-1.308-4.577-3.923-4.577s-4.577,1.635-4.577,5.23v8.826h-3.923v-9.48c0-2.942-1.308-4.577-3.923-4.577s-4.577,1.635-4.577,5.23v8.826H93V99.868h3.269v2.288a6.734,6.734,0,0,1,5.557-2.288,6.6,6.6,0,0,1,5.884,2.942,8.28,8.28,0,0,1,6.538-2.942C118.825,99.215,121.767,101.83,121.767,107.06Z" transform="translate(40.048 -49.463)"/>
      <path id="Path_216" data-name="Path 216" class="cls-3" d="M120.853,109.607h-13.73a5.353,5.353,0,0,0,5.557,4.25,5.486,5.486,0,0,0,4.577-1.961l2.288,2.615a8.443,8.443,0,0,1-6.865,2.942c-5.884,0-9.48-3.6-9.48-8.826s3.923-8.826,9.153-8.826,8.826,3.6,8.826,9.153C121.18,108.626,120.853,108.953,120.853,109.607Zm-13.73-2.942h9.807a4.69,4.69,0,0,0-4.9-4.25C109.411,102.415,107.777,104.377,107.123,106.665Z" transform="translate(63.192 -49.395)"/>
      <path id="Path_217" data-name="Path 217" class="cls-3" d="M127.353,109.607h-13.73a5.353,5.353,0,0,0,5.557,4.25,5.486,5.486,0,0,0,4.577-1.961l2.288,2.615a8.443,8.443,0,0,1-6.865,2.942c-5.884,0-9.48-3.6-9.48-8.826s3.923-8.826,9.153-8.826,8.826,3.6,8.826,9.153C127.353,108.626,127.353,108.953,127.353,109.607Zm-13.73-2.942h9.807a4.69,4.69,0,0,0-4.9-4.25A4.951,4.951,0,0,0,113.623,106.665Z" transform="translate(77.941 -49.395)"/>
      <path id="Path_218" data-name="Path 218" class="cls-3" d="M128.549,118.768a7.01,7.01,0,0,1-3.923,1.308q-5.884,0-5.884-5.884v-8.5H115.8v-3.269h2.942V98.5h3.923v3.923h4.577v3.269h-4.577v8.172a2.332,2.332,0,0,0,2.288,2.615,4.725,4.725,0,0,0,2.288-.654Z" transform="translate(91.782 -52.344)"/>
      <path id="Path_219" data-name="Path 219" class="cls-3" d="M142.514,99.7l-8.173,18.96c-1.635,3.923-3.923,5.23-6.865,5.23a7.086,7.086,0,0,1-4.577-1.634l1.634-2.942a4.868,4.868,0,0,0,2.942,1.308c1.308,0,2.288-.654,2.942-2.288l.327-.654-7.519-17.653h4.25l5.557,12.749,5.557-12.749h3.923Z" transform="translate(107.891 -49.622)"/>
      <path id="Path_220" data-name="Path 220" class="cls-3" d="M129.3,108.526c0-5.23,3.923-8.826,9.153-8.826,5.557,0,9.153,3.6,9.153,8.826s-3.923,8.826-9.153,8.826S129.3,113.757,129.3,108.526Zm14.384,0a5.247,5.247,0,0,0-5.23-5.557c-2.942,0-5.23,1.961-5.23,5.557s2.288,5.557,5.23,5.557C141.4,113.757,143.684,111.8,143.684,108.526Z" transform="translate(122.413 -49.622)"/>
      <path id="Path_221" data-name="Path 221" class="cls-3" d="M153.3,99.927v17.326h-3.923v-2.288a6.734,6.734,0,0,1-5.557,2.288c-4.577,0-7.519-2.288-7.519-7.846V99.6h3.923v9.48c0,3.269,1.634,4.577,3.923,4.577,2.942,0,4.9-1.635,4.9-5.23V99.6h4.25Z" transform="translate(138.296 -49.849)"/>
      <path id="Path_222" data-name="Path 222" class="cls-3" d="M143.1,118.595a2.578,2.578,0,0,1,2.615-2.615,2.615,2.615,0,1,1,0,5.23A2.578,2.578,0,0,1,143.1,118.595ZM143.427,98h4.9l-.654,15.364h-3.269Z" transform="translate(153.725 -53.479)"/>
    </g>
    <g id="Group_133" data-name="Group 133" transform="translate(101.055 0)">
      <path id="Path_223" data-name="Path 223" class="cls-4" d="M34.923,2.715H32.308A1.406,1.406,0,0,1,31,1.408,1.406,1.406,0,0,1,32.308.1H40.48a1.406,1.406,0,0,1,1.308,1.308A1.406,1.406,0,0,1,40.48,2.715H37.865v9.153a1.308,1.308,0,0,1-2.615,0V2.715Z" transform="translate(-31 0.227)"/>
      <path id="Path_224" data-name="Path 224" class="cls-4" d="M36.3,11.542V1.408A1.406,1.406,0,0,1,37.608.1h7.519a1.406,1.406,0,0,1,1.308,1.308c0,.654-.654.981-1.308.981H39.242V5h4.9a1.406,1.406,0,0,1,1.308,1.308,1.406,1.406,0,0,1-1.308,1.308h-4.9v2.615h5.884a1.406,1.406,0,0,1,1.308,1.308,1.2,1.2,0,0,1-1.308,1.308H37.935A1.5,1.5,0,0,1,36.3,11.542Z" transform="translate(-18.974 0.227)"/>
      <path id="Path_225" data-name="Path 225" class="cls-4" d="M41.527,11.442,46.1,1.308C46.1.327,46.757,0,47.738,0h.327A1.8,1.8,0,0,1,49.7.981l4.577,10.134v.654a1.406,1.406,0,0,1-1.308,1.308c-.654,0-.981-.327-1.308-.981l-1.308-1.961H44.8l-.981,2.288c-.327.654-.654.981-1.308.981A1.406,1.406,0,0,1,41.2,12.1C41.2,11.768,41.2,11.442,41.527,11.442Zm7.846-3.6L47.738,3.6,46.1,7.846Z" transform="translate(-7.856 0)"/>
      <path id="Path_226" data-name="Path 226" class="cls-4" d="M46.9,6.865h0A6.7,6.7,0,0,1,53.765,0a7.278,7.278,0,0,1,4.25,1.308c.327.327.654.654.654.981A1.406,1.406,0,0,1,57.361,3.6a1.2,1.2,0,0,1-.981-.327,3.705,3.705,0,0,0-6.211,2.942h0a3.71,3.71,0,0,0,3.6,3.923,4.563,4.563,0,0,0,2.942-.981,1.2,1.2,0,0,1,.981-.327A1.406,1.406,0,0,1,59,10.134c0,.327-.327.654-.327.981a7.086,7.086,0,0,1-4.577,1.635C49.515,13.4,46.9,10.461,46.9,6.865Z" transform="translate(5.077 0)"/>
      <path id="Path_227" data-name="Path 227" class="cls-4" d="M52.6,1.635A1.5,1.5,0,0,1,53.908,0a1.406,1.406,0,0,1,1.308,1.308V5.23h5.23v-3.6a1.308,1.308,0,1,1,2.615,0V12.1a1.308,1.308,0,1,1-2.615,0V7.846h-5.23v3.923a1.308,1.308,0,0,1-2.615,0Z" transform="translate(18.01 0)"/>
      <path id="Path_228" data-name="Path 228" class="cls-4" d="M58.3,11.542V1.408A1.406,1.406,0,0,1,59.608.1H66.8a1.406,1.406,0,0,1,1.308,1.308A1.406,1.406,0,0,1,66.8,2.715H60.915V5.33h4.9c.981-.327,1.308.327,1.308.981a1.406,1.406,0,0,1-1.308,1.308h-4.9v2.615H66.8a1.406,1.406,0,0,1,1.308,1.308A1.406,1.406,0,0,1,66.8,12.849H59.608A1.406,1.406,0,0,1,58.3,11.542Z" transform="translate(30.944 0.227)"/>
      <path id="Path_229" data-name="Path 229" class="cls-4" d="M63.4,1.408A1.406,1.406,0,0,1,64.708.1h4.577a5.211,5.211,0,0,1,3.923,1.308,4,4,0,0,1,.981,2.942h0a3.942,3.942,0,0,1-2.615,3.923l1.961,2.288a1.2,1.2,0,0,1,.327.981,1.406,1.406,0,0,1-1.308,1.308,1.7,1.7,0,0,1-1.308-.654L68.63,8.926H66.342v2.942a1.308,1.308,0,0,1-2.615,0V1.408Zm5.884,4.9c1.308,0,2.288-.654,2.288-1.961h0c0-1.308-.981-1.961-2.288-1.961H66.342V6.311Z" transform="translate(42.516 0.227)"/>
    </g>
    <g id="Group_134" data-name="Group 134" transform="translate(96.479 25.825)">
      <path id="Path_230" data-name="Path 230" class="cls-3" d="M470.435,178.715H41.542A11.582,11.582,0,0,1,30.1,167.273V41.09A32.786,32.786,0,0,1,62.79,8.4H470.434a32.786,32.786,0,0,1,32.69,32.69V145.7A32.857,32.857,0,0,1,470.435,178.715Z" transform="translate(-28.465 -6.766)"/>
      <path id="Path_231" data-name="Path 231" class="cls-2" d="M471.569,181.484H42.676A13.114,13.114,0,0,1,29.6,168.408V42.225A34.32,34.32,0,0,1,63.925,7.9H471.569a34.32,34.32,0,0,1,34.325,34.325V146.833A34.392,34.392,0,0,1,471.569,181.484ZM63.925,11.169A31.253,31.253,0,0,0,32.869,42.225V168.408a9.835,9.835,0,0,0,9.807,9.807H471.9a31.253,31.253,0,0,0,31.056-31.056V42.551A31.253,31.253,0,0,0,471.9,11.5H63.925Z" transform="translate(-29.6 -7.9)"/>
    </g>
    <g id="Group_135" data-name="Group 135" transform="translate(170.031 82.706)">
      <path id="Path_232" data-name="Path 232" class="cls-5" d="M76.618,26,72.041,48.229H68.118l1.961-9.48H58.311l-1.961,9.48H52.1L56.677,26h4.25l-1.961,9.153H70.406L72.368,26Z" transform="translate(-52.1 -23.712)"/>
      <path id="Path_233" data-name="Path 233" class="cls-5" d="M63.269,32.819h3.923l-3.269,17H60Zm.327-4.9A2.578,2.578,0,0,1,66.211,25.3,2.186,2.186,0,0,1,68.5,27.261a2.406,2.406,0,0,1-2.615,2.615A1.839,1.839,0,0,1,63.6,27.915Z" transform="translate(-34.175 -25.3)"/>
      <path id="Path_234" data-name="Path 234" class="cls-5" d="M68.638,33.815a4.346,4.346,0,0,1-.981,2.288l-2.942,4.9H62.1l2.288-4.9a2.33,2.33,0,0,1-.981-1.961A2.882,2.882,0,0,1,66.023,31.2C67.33,31.527,68.638,32.508,68.638,33.815Z" transform="translate(-29.41 -11.913)"/>
      <path id="Path_235" data-name="Path 235" class="cls-5" d="M73.13,41.537v.654a1.734,1.734,0,0,0,1.961,1.961A6.06,6.06,0,0,0,77.38,43.5l.654,2.942a9.049,9.049,0,0,1-4.25.981c-2.942,0-4.9-1.635-4.9-4.577V41.537l1.635-7.846H67.9l.654-3.269H71.5L72.15,26.5h3.923l-.654,3.923H80l-.654,3.269H74.765Z" transform="translate(-16.25 -22.577)"/>
      <path id="Path_236" data-name="Path 236" class="cls-5" d="M90.306,37.468a4.146,4.146,0,0,1-.327,1.961l-1.634,9.48H84.422l1.961-9.153V38.449c0-1.961-.981-2.942-3.269-2.942-2.942,0-4.9,1.635-5.557,4.9l-1.635,8.826H72L76.577,25.7H80.5l-1.961,7.846A8.877,8.877,0,0,1,84.1,31.584C88.018,31.911,90.306,33.873,90.306,37.468Z" transform="translate(-6.947 -24.392)"/>
      <path id="Path_237" data-name="Path 237" class="cls-5" d="M81.869,32.819h3.923l-3.269,17H78.6Zm.327-4.9A2.578,2.578,0,0,1,84.811,25.3,2.186,2.186,0,0,1,87.1,27.261a2.406,2.406,0,0,1-2.615,2.615A1.839,1.839,0,0,1,82.2,27.915Z" transform="translate(8.029 -25.3)"/>
      <path id="Path_238" data-name="Path 238" class="cls-5" d="M80.9,42.737,82.535,39.8a10.454,10.454,0,0,0,5.884,1.635q3.923,0,3.923-1.961c0-2.942-9.153-.654-9.153-6.211,0-3.6,3.269-5.557,8.173-5.557a17.425,17.425,0,0,1,6.211,1.308L95.937,31.95a9.225,9.225,0,0,0-4.9-1.308c-2.615,0-3.923.981-3.923,1.961,0,2.942,9.153.654,9.153,6.211,0,3.6-3.269,5.557-8.173,5.557A11.2,11.2,0,0,1,80.9,42.737Z" transform="translate(13.247 -19.854)"/>
      <path id="Path_239" data-name="Path 239" class="cls-5" d="M92.269,32.819h3.923l-3.269,17H89Zm.654-4.9A2.578,2.578,0,0,1,95.538,25.3a2.186,2.186,0,0,1,2.288,1.961,2.406,2.406,0,0,1-2.615,2.615A1.839,1.839,0,0,1,92.923,27.915Z" transform="translate(31.626 -25.3)"/>
      <path id="Path_240" data-name="Path 240" class="cls-5" d="M91.4,42.737,93.034,39.8a10.454,10.454,0,0,0,5.884,1.635q3.923,0,3.923-1.961c0-2.942-9.153-.654-9.153-6.211,0-3.6,3.269-5.557,8.173-5.557a17.425,17.425,0,0,1,6.211,1.308l-1.961,2.942a9.225,9.225,0,0,0-4.9-1.308c-2.615,0-3.923.981-3.923,1.961,0,2.942,9.153.654,9.153,6.211,0,3.6-3.269,5.557-8.173,5.557A10.73,10.73,0,0,1,91.4,42.737Z" transform="translate(37.072 -19.854)"/>
      <path id="Path_241" data-name="Path 241" class="cls-5" d="M121.075,32.657c0,5.557-3.923,9.153-10.461,9.153h-5.557l-1.308,6.538H99.5l4.577-22.229h8.5C118.133,25.792,121.075,28.407,121.075,32.657Zm-3.923.327c0-2.288-1.634-3.6-4.577-3.6h-4.9l-1.634,8.826h4.9C114.864,38.214,117.153,36.253,117.153,32.984Z" transform="translate(55.451 -23.504)"/>
      <path id="Path_242" data-name="Path 242" class="cls-5" d="M126.341,27.6l-3.269,17h-3.923l.327-1.635a7.689,7.689,0,0,1-5.557,1.961c-4.25,0-7.519-2.615-7.519-7.519,0-5.884,4.25-9.807,9.48-9.807a7.182,7.182,0,0,1,5.884,2.615l.327-2.615h4.25Zm-5.557,7.519c0-2.615-1.635-4.25-4.577-4.25a5.94,5.94,0,0,0-5.884,6.211c0,2.615,1.635,4.25,4.577,4.25C118.5,41.33,120.784,38.715,120.784,35.119Z" transform="translate(71.107 -20.081)"/>
      <path id="Path_243" data-name="Path 243" class="cls-5" d="M132.26,28.054l-3.269,17h-3.923l.327-1.961a9.127,9.127,0,0,1-5.884,1.961c-3.6,0-6.211-1.961-6.211-5.884a4.146,4.146,0,0,1,.327-1.961l1.961-9.48h3.923L117.55,36.88v1.308c0,1.961.981,2.942,3.269,2.942,2.942,0,4.9-1.635,5.557-4.9L128.01,27.4h4.25Z" transform="translate(86.763 -20.535)"/>
      <path id="Path_244" data-name="Path 244" class="cls-5" d="M124.277,25.6H128.2l-4.577,23.537H119.7Z" transform="translate(101.284 -24.619)"/>
      <path id="Path_245" data-name="Path 245" class="cls-5" d="M122.5,37.407c0-5.557,4.25-9.807,10.134-9.807,4.9,0,8.173,2.942,8.173,7.519,0,5.557-4.25,9.807-10.134,9.807C125.769,44.926,122.5,41.984,122.5,37.407Zm14.384-2.288c0-2.615-1.634-4.25-4.577-4.25a5.94,5.94,0,0,0-5.884,6.211c0,2.615,1.635,4.25,4.577,4.25A5.94,5.94,0,0,0,136.884,35.119Z" transform="translate(107.638 -20.081)"/>
      <path id="Path_246" data-name="Path 246" class="cls-5" d="M59.719,43.138l-.327.981h4.577l-.654,3.269H58.738l-2.615,13.4H52.2l2.615-13.73H52.2l.654-3.269h2.615l.327-1.308c.654-3.6,2.942-5.884,6.865-5.884a5.872,5.872,0,0,1,3.6.981l-1.308,3.6a4.646,4.646,0,0,0-1.961-.654C61.026,40.523,60.046,41.177,59.719,43.138Z" transform="translate(-51.873 0.34)"/>
      <path id="Path_247" data-name="Path 247" class="cls-5" d="M69.8,38.8l-.981,3.923h-.981c-3.269,0-5.23,1.634-5.884,5.23L60.323,55.8H56.4l3.269-17h3.923l-.327,2.288C64.573,39.454,66.861,38.8,69.8,38.8Z" transform="translate(-42.343 5.332)"/>
      <path id="Path_248" data-name="Path 248" class="cls-5" d="M60.5,48.607c0-5.557,4.25-9.807,10.134-9.807,4.9,0,8.173,2.942,8.173,7.519,0,5.557-4.25,9.807-10.134,9.807C63.442,56.126,60.5,53.184,60.5,48.607Zm14.057-2.288c0-2.615-1.635-4.25-4.577-4.25A5.94,5.94,0,0,0,64.1,48.28c0,2.615,1.635,4.25,4.577,4.25C72.268,52.857,74.557,50.242,74.557,46.319Z" transform="translate(-33.04 5.332)"/>
      <path id="Path_249" data-name="Path 249" class="cls-5" d="M97.1,44.357a4.146,4.146,0,0,1-.327,1.961L94.813,55.8H90.891l1.961-9.153V45.338c0-1.961-.981-2.942-3.269-2.942-2.615,0-4.577,1.635-5.23,4.9l-1.635,8.5H78.8l1.961-9.153V45.338c0-1.961-.981-2.942-3.269-2.942-2.615,0-4.577,1.635-5.23,4.9l-1.634,8.5H66.7l3.269-17h3.923l-.327,1.961A8.249,8.249,0,0,1,79.122,38.8a5.546,5.546,0,0,1,5.23,2.942A8.23,8.23,0,0,1,90.891,38.8C94.486,38.8,97.1,40.761,97.1,44.357Z" transform="translate(-18.973 5.332)"/>
      <path id="Path_250" data-name="Path 250" class="cls-5" d="M79.8,50.5c0-7.519,5.557-13.4,13.73-13.4,6.538,0,10.461,3.923,10.461,9.48,0,7.519-5.557,13.4-13.73,13.4C83.723,59.983,79.8,56.387,79.8,50.5Zm19.941-3.6c0-3.6-2.288-6.211-6.865-6.211-5.557,0-9.153,4.25-9.153,9.48,0,3.6,2.288,6.211,6.865,6.211C96.472,56.387,99.741,52.137,99.741,46.907Z" transform="translate(10.751 1.474)"/>
      <path id="Path_251" data-name="Path 251" class="cls-5" d="M106.333,44.357a4.146,4.146,0,0,1-.327,1.961l-1.635,9.48h-3.923l1.961-9.153V45.338c0-1.961-.981-2.942-3.269-2.942-2.942,0-4.9,1.635-5.557,4.9l-1.961,8.5H87.7l3.269-17h3.923l-.327,1.961a9.127,9.127,0,0,1,5.884-1.961C104.045,38.8,106.333,40.761,106.333,44.357Z" transform="translate(28.676 5.332)"/>
      <path id="Path_252" data-name="Path 252" class="cls-5" d="M104.919,40.8H97.4l.654-3.6h18.96l-.654,3.6h-7.192l-3.923,18.633H101Z" transform="translate(50.686 1.701)"/>
      <path id="Path_253" data-name="Path 253" class="cls-5" d="M121.306,49a4.146,4.146,0,0,1-.327,1.961l-1.634,9.153h-3.923l1.961-9.153V49.649c0-1.961-.981-2.942-3.269-2.942-2.942,0-4.9,1.635-5.557,4.9l-1.635,8.826H103L107.577,36.9H111.5l-1.634,8.173a8.877,8.877,0,0,1,5.557-1.961C118.691,43.111,121.306,45.073,121.306,49Z" transform="translate(63.392 1.02)"/>
      <path id="Path_254" data-name="Path 254" class="cls-5" d="M126.7,48.607H113.3c0,2.615,1.634,4.25,4.9,4.25a8.03,8.03,0,0,0,4.9-1.635l1.634,2.615c-1.634,1.635-4.25,2.288-6.865,2.288-5.23,0-8.172-2.942-8.172-7.519a9.441,9.441,0,0,1,9.807-9.807c4.577,0,7.846,2.942,7.846,7.519A6.06,6.06,0,0,0,126.7,48.607Zm-13.076-2.615h9.807c0-2.615-1.635-3.923-4.25-3.923C116.238,42.069,114.277,43.377,113.623,45.992Z" transform="translate(78.594 5.332)"/>
      <path id="Path_255" data-name="Path 255" class="cls-5" d="M139.875,43.838c0,5.557-3.923,9.153-10.461,9.153h-5.557l-1.308,6.538H118.3L122.877,37.3h8.5C136.933,37.3,139.875,39.588,139.875,43.838Zm-4.25.327c0-2.288-1.634-3.6-4.577-3.6h-4.577L124.838,49.4h4.9C133.337,49.4,135.626,47.761,135.626,44.165Z" transform="translate(98.108 1.928)"/>
      <path id="Path_256" data-name="Path 256" class="cls-5" d="M143.933,48.768a4.146,4.146,0,0,1-.327,1.961l-1.961,9.48h-3.923l1.961-9.153V49.749c0-1.961-.981-2.942-3.269-2.942-2.942,0-4.9,1.635-5.557,4.9l-1.635,8.826H125.3L129.877,37H133.8l-1.634,8.173a8.877,8.877,0,0,1,5.557-1.961C141.645,42.884,143.933,44.846,143.933,48.768Z" transform="translate(113.991 1.247)"/>
      <path id="Path_257" data-name="Path 257" class="cls-5" d="M132,48.607c0-5.557,4.25-9.807,10.134-9.807,4.9,0,8.173,2.942,8.173,7.519,0,5.557-4.25,9.807-10.134,9.807C135.269,56.126,132,53.184,132,48.607Zm14.384-2.288c0-2.615-1.634-4.25-4.577-4.25a5.94,5.94,0,0,0-5.884,6.211c0,2.615,1.635,4.25,4.577,4.25C143.768,52.857,146.384,50.242,146.384,46.319Z" transform="translate(129.193 5.332)"/>
      <path id="Path_258" data-name="Path 258" class="cls-5" d="M156.933,44.155a4.146,4.146,0,0,1-.327,1.961l-1.961,9.48h-3.923l1.961-9.153V45.136c0-1.961-.981-2.942-3.269-2.942-2.942,0-4.9,1.635-5.557,4.9l-1.635,8.826H138.3l3.269-17h3.923l-.327,1.961a9.127,9.127,0,0,1,5.884-1.961C154.318,38.6,156.933,40.559,156.933,44.155Z" transform="translate(143.488 5.534)"/>
      <path id="Path_259" data-name="Path 259" class="cls-5" d="M162.1,48.607H148.7c0,2.615,1.635,4.25,4.9,4.25a8.03,8.03,0,0,0,4.9-1.635l1.635,2.615c-1.635,1.635-4.25,2.288-6.865,2.288-5.23,0-8.172-2.942-8.172-7.519a9.441,9.441,0,0,1,9.807-9.807c4.577,0,7.846,2.942,7.846,7.519A3.112,3.112,0,0,0,162.1,48.607Zm-13.076-2.615h9.807c0-2.615-1.635-3.923-4.25-3.923C151.638,42.069,149.677,43.377,149.023,45.992Z" transform="translate(158.917 5.332)"/>
      <path id="Path_260" data-name="Path 260" class="cls-5" d="M150.7,45.342a2.882,2.882,0,0,1,2.615-2.942,2.332,2.332,0,0,1,2.288,2.615,2.882,2.882,0,0,1-2.615,2.942A2.332,2.332,0,0,1,150.7,45.342Z" transform="translate(171.623 13.5)"/>
    </g>
    <path id="Path_261" data-name="Path 261" class="cls-3" d="M36.975,28.2a5.163,5.163,0,0,0-5.23,5.23,4.66,4.66,0,0,0,1.961,3.923,26.839,26.839,0,0,1-9.153,1.635A25.438,25.438,0,0,1,15.4,37.353a4.66,4.66,0,0,0,1.961-3.923,5.163,5.163,0,0,0-5.23-5.23A5.163,5.163,0,0,0,6.9,33.43c0,8.173,11.442,9.807,17.653,9.807S42.205,41.6,42.205,33.43C41.878,30.488,39.59,28.2,36.975,28.2Z" transform="translate(15.372 63.986)"/>
    <path id="Path_262" data-name="Path 262" class="cls-2" d="M42.105,33.43c0,8.173-11.768,9.807-17.653,9.807S6.8,41.276,6.8,33.43a5.163,5.163,0,0,1,5.23-5.23,5.163,5.163,0,0,1,5.23,5.23A4.66,4.66,0,0,1,15.3,37.353a25.438,25.438,0,0,0,9.153,1.635,26.839,26.839,0,0,0,9.153-1.635,5.7,5.7,0,0,1-1.961-3.923,5.23,5.23,0,0,1,10.461,0Z" transform="translate(15.146 63.986)"/>
    <path id="Path_263" data-name="Path 263" class="cls-2" d="M75.557,31.573h0a16.893,16.893,0,0,0-9.48-9.48h0a84.13,84.13,0,0,0-52.3,0h0a16.893,16.893,0,0,0-9.48,9.48h0a84.129,84.129,0,0,0,0,52.3h0a16.893,16.893,0,0,0,9.48,9.48h0a97.648,97.648,0,0,0,16.345,3.6l6.865,6.865a4.143,4.143,0,0,0,5.884,0l6.865-6.865a97.649,97.649,0,0,0,16.345-3.6h0a16.893,16.893,0,0,0,9.48-9.48h0A84.129,84.129,0,0,0,75.557,31.573ZM69.673,81.916a11.481,11.481,0,0,1-5.557,5.557,68.094,68.094,0,0,1-15.364,3.269,2.825,2.825,0,0,0-1.961.981l-3.6,3.6a4.143,4.143,0,0,1-5.884,0l-3.6-3.6a2.825,2.825,0,0,0-1.961-.981,80.256,80.256,0,0,1-15.364-3.269,11.481,11.481,0,0,1-5.557-5.557,76.549,76.549,0,0,1,0-48.381,11.481,11.481,0,0,1,5.557-5.557,76.549,76.549,0,0,1,48.381,0,11.481,11.481,0,0,1,5.557,5.557A81.42,81.42,0,0,1,69.673,81.916Z" transform="translate(0 40.672)"/>
    <path id="Path_264" data-name="Path 264" class="cls-3" d="M65.419,29.28a11.481,11.481,0,0,0-5.557-5.557,76.549,76.549,0,0,0-48.381,0A11.481,11.481,0,0,0,5.923,29.28a76.549,76.549,0,0,0,0,48.381,11.481,11.481,0,0,0,5.557,5.557,68.1,68.1,0,0,0,15.364,3.269,2.825,2.825,0,0,1,1.961.981l3.6,3.6a4.143,4.143,0,0,0,5.884,0l3.6-3.6a2.825,2.825,0,0,1,1.961-.981,80.257,80.257,0,0,0,15.364-3.269,11.481,11.481,0,0,0,5.557-5.557A72.3,72.3,0,0,0,65.419,29.28ZM35.344,62.3c-5.884,0-17.653-1.961-17.653-9.807a5.23,5.23,0,0,1,10.461,0,4.66,4.66,0,0,1-1.961,3.923,25.438,25.438,0,0,0,9.153,1.635A26.839,26.839,0,0,0,44.5,56.413a5.7,5.7,0,0,1-1.961-3.923A5.23,5.23,0,0,1,53,52.49C53,60.663,41.555,62.3,35.344,62.3Z" transform="translate(4.254 44.926)"/>
    <g id="Group_136" data-name="Group 136" transform="translate(6.581 153.643)">
      <path id="Path_265" data-name="Path 265" class="cls-1" d="M2.1,53.984A5.94,5.94,0,0,1,8.311,48.1c3.6,0,6.211,2.288,6.211,5.884a5.94,5.94,0,0,1-6.211,5.884A5.94,5.94,0,0,1,2.1,53.984Zm9.153,0a2.744,2.744,0,0,0-2.942-2.942,2.93,2.93,0,0,0-2.942,2.942,2.744,2.744,0,0,0,2.942,2.942C9.946,57.253,11.253,55.946,11.253,53.984Z" transform="translate(-2.1 -44.504)"/>
      <path id="Path_266" data-name="Path 266" class="cls-1" d="M17.742,53.132V59.67H14.473V53.786c0-1.961-.981-2.615-2.288-2.615-1.635,0-2.615.981-2.615,2.942V59.67H6.3V48.555H9.242v1.308a5.25,5.25,0,0,1,3.6-1.635C15.78,47.9,17.742,49.536,17.742,53.132Z" transform="translate(7.43 -44.306)"/>
      <path id="Path_267" data-name="Path 267" class="cls-1" d="M20.1,60.8a6.159,6.159,0,0,1-2.615.654c-2.615,0-4.25-1.308-4.25-3.923v-4.9H11.6V50.015h1.635V47.4H16.5v2.615h2.942V52.63H16.5v4.577a1.5,1.5,0,0,0,1.308,1.635,1.965,1.965,0,0,0,1.308-.327Z" transform="translate(19.456 -46.092)"/>
      <path id="Path_268" data-name="Path 268" class="cls-1" d="M25.942,55.826v6.538H22.673V56.48c0-1.961-.981-2.615-2.288-2.615-1.635,0-2.615.981-2.615,2.942v5.557H14.5V47h3.269v5.557a4.465,4.465,0,0,1,3.6-1.308C23.98,50.6,25.942,52.23,25.942,55.826Z" transform="translate(26.036 -47)"/>
      <path id="Path_269" data-name="Path 269" class="cls-1" d="M30.168,54.738h-8.5a3.248,3.248,0,0,0,3.269,2.288,4.563,4.563,0,0,0,2.942-.981l1.635,1.961a5.486,5.486,0,0,1-4.577,1.961c-3.923,0-6.538-2.288-6.538-5.884A5.86,5.86,0,0,1,24.284,48.2a5.664,5.664,0,0,1,5.884,5.884S30.168,54.411,30.168,54.738Zm-8.5-1.961h5.557a2.774,2.774,0,0,0-2.615-2.288A2.864,2.864,0,0,0,21.669,52.777Z" transform="translate(34.885 -44.277)"/>
      <path id="Path_270" data-name="Path 270" class="cls-1" d="M14.5,59.779c0,3.6-2.288,5.884-5.557,5.884a3.79,3.79,0,0,1-3.269-1.308v5.23H2.4V54.222H5.342v1.308c.654-.981,1.961-1.308,3.6-1.308C12.207,53.895,14.5,56.183,14.5,59.779Zm-3.269,0a2.744,2.744,0,0,0-2.942-2.942,2.93,2.93,0,0,0-2.942,2.942,2.744,2.744,0,0,0,2.942,2.942A2.744,2.744,0,0,0,11.226,59.779Z" transform="translate(-1.419 -30.685)"/>
      <path id="Path_271" data-name="Path 271" class="cls-1" d="M17.942,62.053v6.538H14.673V62.707c0-1.961-.654-2.942-2.288-2.942s-2.615.981-2.615,2.942v5.557H6.5V52.9H9.769v5.557a4.465,4.465,0,0,1,3.6-1.308C15.98,56.823,17.942,58.457,17.942,62.053Z" transform="translate(7.884 -33.613)"/>
      <path id="Path_272" data-name="Path 272" class="cls-1" d="M10.4,59.984A5.94,5.94,0,0,1,16.611,54.1c3.6,0,6.211,2.288,6.211,5.884s-2.615,5.884-6.211,5.884A5.94,5.94,0,0,1,10.4,59.984Zm9.153,0a2.744,2.744,0,0,0-2.942-2.942,2.93,2.93,0,0,0-2.942,2.942,2.744,2.744,0,0,0,2.942,2.942C18.246,63.253,19.553,61.946,19.553,59.984Z" transform="translate(16.733 -30.89)"/>
      <path id="Path_273" data-name="Path 273" class="cls-1" d="M26.042,59.132V65.67H22.773V59.786c0-1.961-.981-2.615-2.288-2.615-1.635,0-2.615.981-2.615,2.942V65.67H14.6V54.555h2.942v1.308a5.249,5.249,0,0,1,3.6-1.635C24.08,53.9,26.042,55.536,26.042,59.132Z" transform="translate(26.263 -30.692)"/>
      <path id="Path_274" data-name="Path 274" class="cls-1" d="M30.268,60.738h-8.5a3.248,3.248,0,0,0,3.269,2.288,4.563,4.563,0,0,0,2.942-.981l1.635,1.961a5.486,5.486,0,0,1-4.577,1.961c-3.923,0-6.538-2.288-6.538-5.884A5.86,5.86,0,0,1,24.384,54.2a5.664,5.664,0,0,1,5.884,5.884S30.268,60.411,30.268,60.738Zm-8.5-1.961h5.557a2.774,2.774,0,0,0-2.615-2.288A2.864,2.864,0,0,0,21.769,58.777Z" transform="translate(35.112 -30.663)"/>
    </g>
    <g id="Group_137" data-name="Group 137" transform="translate(608.078 363.186)">
      <path id="Path_275" data-name="Path 275" class="cls-1" d="M193.619,119.046v4.25h-2.942v-4.25L186.1,111.2h2.942l3.269,5.557,3.269-5.557H198.2Z" transform="translate(-186.1 -110.873)"/>
      <path id="Path_276" data-name="Path 276" class="cls-1" d="M190,117.311a6.285,6.285,0,0,1,6.538-6.211c3.923,0,6.538,2.615,6.538,6.211a6.547,6.547,0,0,1-13.076,0Zm10.461,0a3.923,3.923,0,1,0-3.923,3.923A3.777,3.777,0,0,0,200.461,117.311Z" transform="translate(-177.251 -111.1)"/>
      <path id="Path_277" data-name="Path 277" class="cls-1" d="M194.9,117.965V111.1h2.942v6.538c0,2.288.981,3.269,2.615,3.269s2.615-.981,2.615-3.269V111.1h2.615v6.865c0,3.6-1.961,5.557-5.557,5.557S194.9,121.561,194.9,117.965Z" transform="translate(-166.133 -111.1)"/>
    </g>
    <path id="Path_278" data-name="Path 278" class="cls-3" d="M217.175,90.7a5.164,5.164,0,0,0-5.23,5.23,4.66,4.66,0,0,0,1.961,3.923,26.839,26.839,0,0,1-9.153,1.634,25.438,25.438,0,0,1-9.153-1.634,4.66,4.66,0,0,0,1.961-3.923,5.23,5.23,0,0,0-10.461,0c0,8.173,11.442,9.807,17.653,9.807s17.653-1.634,17.653-9.807A5.163,5.163,0,0,0,217.175,90.7Z" transform="translate(424.247 205.798)"/>
    <path id="Path_279" data-name="Path 279" class="cls-1" d="M255.757,94.073h0a16.894,16.894,0,0,0-9.48-9.48h0a84.13,84.13,0,0,0-52.3,0h0a16.893,16.893,0,0,0-9.48,9.48h0a84.13,84.13,0,0,0,0,52.3h0a16.893,16.893,0,0,0,9.48,9.48h0a97.647,97.647,0,0,0,16.345,3.6l6.865,6.865a4.143,4.143,0,0,0,5.884,0l6.865-6.865a97.647,97.647,0,0,0,16.345-3.6h0a16.893,16.893,0,0,0,9.48-9.48h0A79.695,79.695,0,0,0,255.757,94.073Zm-5.884,50.343a11.481,11.481,0,0,1-5.557,5.557,68.1,68.1,0,0,1-15.364,3.269,2.826,2.826,0,0,0-1.961.981l-3.6,3.6a4.143,4.143,0,0,1-5.884,0l-3.6-3.6a2.825,2.825,0,0,0-1.961-.981,80.259,80.259,0,0,1-15.364-3.269,11.481,11.481,0,0,1-5.557-5.557,76.549,76.549,0,0,1,0-48.381,11.48,11.48,0,0,1,5.557-5.557,76.549,76.549,0,0,1,48.381,0,11.48,11.48,0,0,1,5.557,5.557A81.42,81.42,0,0,1,249.873,144.416Z" transform="translate(408.874 182.484)"/>
    <path id="Path_280" data-name="Path 280" class="cls-3" d="M245.619,91.78a11.48,11.48,0,0,0-5.557-5.557,76.549,76.549,0,0,0-48.381,0,11.48,11.48,0,0,0-5.557,5.557,76.549,76.549,0,0,0,0,48.381,11.481,11.481,0,0,0,5.557,5.557,68.1,68.1,0,0,0,15.364,3.269,2.826,2.826,0,0,1,1.961.981l3.6,3.6a4.143,4.143,0,0,0,5.884,0l3.6-3.6a2.826,2.826,0,0,1,1.961-.981,80.258,80.258,0,0,0,15.364-3.269,11.481,11.481,0,0,0,5.557-5.557A72.3,72.3,0,0,0,245.619,91.78Z" transform="translate(413.129 186.739)"/>
  </g>
</svg>
